# xmcd
#
# Track frame offsets:
# 150
# 14963
# 35087
# 52004
# 66991
# 85583
# 99044
# 113063
# 128442
# 145788
# 163356
# 175224
# 184118
# 201012
# 219782
# 235631
# 250070
# 263574
# 276731
# 292159
# 305207
# 324773
# 337223
#
# Disc length: 4694 seconds
#
#
# Revision: 0
# Processed by: cddbd v1.5.1PL2 Copyright (c) Steve Scherf et al.
# Submitted via: FreeRIP 2.945 
#
DISCID=5a125417
DTITLE=Vários - Agito Sertanejo
DYEAR=2005
DGENRE=Sertanejo
TTITLE0=Edson and Hudson - Galera Coração
TTITLE1=Zezé Di Camargo and Luciano - Fui Eu
TTITLE2=Zezé Di Camargo and Luciano - Fera Mansa
TTITLE3=Rio Negro and Solimões - Movido Pela Emoção
TTITLE4=Amado Batista - Amado@Com
TTITLE5=Bruno and Marrone - Trânsito Parado
TTITLE6=Rio Negor and Solimões - O Grito Da Galera
TTITLE7=Edson and Hudson - Solte A Garganta
TTITLE8=Bruno and Marrone - Apaziguar (Credo Em Cruz Ave-Maria)
TTITLE9=Edson and Hudson - Não Tem Dia Não Tem Hora
TTITLE10=Edson and Hudson - Chega Junto
TTITLE11=Amado Batista - Menininha Meu Amor
TTITLE12=Zezé Di Camargo and Luciano - Meu Coração
TTITLE13=Amado Batista - Seresteiro das Noites
TTITLE14=Bruno and Marrone - Ligação Urbana
TTITLE15=Amado Batista - Não Quero Falar Com Ela
TTITLE16=Zezé Di Camargo and Luciano - Sou Parada Dura
TTITLE17=Rio Negro and Solimões - Saudade Pulou No Peito
TTITLE18=Zezé Di Camargo and Luciano - Paguei Pra Ver
TTITLE19=Rio Negro and Solimões - Na Sola Da Bota
TTITLE20=Bruno and Marrone - Vai Dar Namoro
TTITLE21=Rio Negro and Solimões - Bate O Pé
TTITLE22=Edson and Hudson - O Caldeirão Vai Ferver
EXTD=
EXTT0=
EXTT1=
EXTT2=
EXTT3=
EXTT4=
EXTT5=
EXTT6=
EXTT7=
EXTT8=
EXTT9=
EXTT10=
EXTT11=
EXTT12=
EXTT13=
EXTT14=
EXTT15=
EXTT16=
EXTT17=
EXTT18=
EXTT19=
EXTT20=
EXTT21=
EXTT22=
PLAYORDER=
